<?xml version="1.0" standalone="no"?>
<!DOCTYPE svg PUBLIC "-//W3C//DTD SVG 20010904//EN"
 "http://www.w3.org/TR/2001/REC-SVG-20010904/DTD/svg10.dtd">
<svg version="1.0" xmlns="http://www.w3.org/2000/svg"
 width="650.000000pt" height="555.000000pt" viewBox="0 0 650.000000 555.000000"
 preserveAspectRatio="xMidYMid meet">
<metadata>
Created by potrace 1.16, written by Peter Selinger 2001-2019
</metadata>
<g transform="translate(0.000000,555.000000) scale(0.100000,-0.100000)"
fill="#000000" stroke="none">
<path d="M2941 5084 c-877 -112 -1605 -749 -1845 -1614 -21 -75 -57 -263 -51
-268 2 -2 277 87 611 199 576 193 609 206 638 239 75 87 189 191 268 243 255
170 557 238 848 192 52 -9 108 -20 124 -25 25 -9 100 14 555 166 289 97 566
190 614 206 l88 31 -38 39 c-115 119 -348 285 -521 372 -234 116 -459 185
-720 221 -137 18 -425 18 -571 -1z"/>
<path d="M3093 3395 c-181 -49 -325 -196 -373 -380 -13 -51 -13 -197 1 -255
37 -163 170 -307 338 -366 91 -32 242 -33 336 -2 171 56 309 209 345 382 58
279 -107 551 -376 620 -75 19 -201 20 -271 1z"/>
<path d="M5285 2544 c-55 -18 -322 -107 -593 -198 l-494 -165 -85 -91 c-106
-113 -231 -208 -348 -265 -175 -85 -297 -116 -494 -123 -122 -4 -161 -1 -261
18 l-118 23 -614 -206 -613 -206 60 -56 c306 -290 703 -484 1145 -561 184 -32
488 -37 665 -10 650 99 1185 439 1551 988 128 191 255 501 304 738 11 58 23
115 26 128 6 29 -7 28 -131 -14z"/>
</g>
</svg>
