<?xml version="1.0" standalone="no"?>
<!DOCTYPE svg PUBLIC "-//W3C//DTD SVG 20010904//EN"
 "http://www.w3.org/TR/2001/REC-SVG-20010904/DTD/svg10.dtd">
<svg version="1.0" xmlns="http://www.w3.org/2000/svg"
 width="1480.000000pt" height="830.000000pt" viewBox="0 0 1480.000000 830.000000"
 preserveAspectRatio="xMidYMid meet">

<g transform="translate(0.000000,830.000000) scale(0.100000,-0.100000)"
fill="#000000" stroke="none">
<path d="M8850 7318 c0 -9 7 -45 16 -80 22 -86 15 -178 -20 -249 -34 -67 -54
-88 -193 -205 -132 -112 -286 -272 -348 -363 -69 -101 -89 -166 -89 -291 -1
-127 14 -167 120 -305 37 -49 95 -137 127 -195 33 -58 66 -115 73 -127 l14
-22 72 20 c185 51 311 174 407 396 88 203 131 414 131 643 0 223 -95 500 -241
704 -65 89 -69 94 -69 74z"/>
<path d="M6428 6928 c-163 -188 -255 -378 -313 -643 -47 -214 -45 -648 2 -890
29 -143 29 -143 -1 -147 l-26 -3 39 -55 c24 -32 51 -89 66 -135 29 -91 116
-266 182 -370 78 -121 245 -267 388 -337 121 -60 363 -119 450 -109 6 1 -33
24 -85 52 -136 73 -206 126 -301 227 -76 81 -159 200 -159 228 0 11 54 -3 305
-77 88 -26 106 -35 148 -77 26 -26 80 -94 120 -151 55 -80 73 -100 75 -84 5
36 -65 229 -137 378 -74 153 -131 225 -246 312 -84 64 -224 129 -330 155 -49
12 -97 27 -105 35 -13 11 -15 54 -15 261 l1 247 46 205 c69 305 73 336 59 422
-6 41 -21 103 -32 138 -34 109 -59 267 -59 377 0 57 -4 103 -9 103 -5 0 -34
-28 -63 -62z"/>
<path d="M6720 6973 c0 -5 7 -27 15 -50 20 -56 1 -170 -53 -319 -57 -157 -68
-220 -53 -302 15 -81 41 -132 97 -192 51 -55 118 -93 194 -110 67 -15 119 -41
163 -80 l34 -29 103 202 c101 199 103 204 103 273 1 126 -40 216 -153 343 -95
104 -184 167 -323 228 -98 42 -127 50 -127 36z"/>
<path d="M8515 6896 c-375 -67 -750 -263 -977 -512 -157 -172 -301 -462 -375
-754 -41 -164 -60 -386 -43 -515 12 -88 58 -265 70 -265 4 0 10 21 14 48 17
129 115 341 258 558 113 173 216 300 387 477 160 166 219 249 275 387 94 230
264 405 539 555 l82 45 -50 -1 c-27 0 -108 -11 -180 -23z"/>
<path d="M4835 5906 c-5 -2 -44 -9 -85 -16 -217 -36 -455 -158 -698 -357 -29
-24 -6 -23 89 3 112 31 209 30 274 -4 22 -11 96 -74 165 -139 290 -277 371
-344 474 -392 88 -41 156 -55 248 -48 99 7 173 40 348 158 114 77 234 143 333
183 43 17 46 33 21 117 -20 65 -69 142 -131 202 -91 89 -305 198 -466 238 -45
11 -109 27 -142 35 -55 13 -405 30 -430 20z"/>
<path d="M8932 5469 c-85 -9 -227 -39 -392 -83 -94 -26 -95 -26 -102 19 -3 17
-7 16 -43 -16 -28 -25 -70 -46 -135 -69 -120 -41 -281 -119 -374 -181 -90 -60
-241 -215 -288 -296 -43 -72 -101 -214 -122 -298 -17 -69 -31 -185 -22 -185 3
0 17 24 32 53 99 197 264 366 451 461 57 28 88 34 80 13 -2 -7 -17 -57 -32
-112 -48 -179 -92 -280 -139 -322 -53 -47 -171 -134 -225 -164 -51 -29 -53
-43 -3 -34 64 12 362 115 425 147 160 80 288 218 366 391 33 73 67 176 76 230
8 51 29 58 196 64 157 7 272 -5 489 -48 207 -42 319 -38 493 14 185 56 301 77
426 77 61 0 111 4 111 9 0 16 -96 90 -189 145 -161 95 -362 162 -561 186 -99
12 -399 11 -518 -1z"/>
<path d="M4456 5418 c73 -409 219 -716 462 -970 112 -116 221 -204 327 -264
166 -92 429 -190 629 -233 133 -29 360 -44 472 -31 87 9 301 63 317 79 4 5
-21 11 -56 15 -108 11 -270 73 -477 183 -221 118 -381 229 -587 406 -178 152
-299 225 -468 281 -210 69 -402 235 -556 479 -30 48 -57 87 -61 87 -4 0 -5
-15 -2 -32z"/>
<path d="M9501 4964 c-142 -38 -238 -143 -261 -286 -13 -85 -27 -124 -61 -176
-16 -24 -29 -45 -29 -47 0 -2 17 -7 38 -10 65 -11 194 -56 293 -101 69 -32
114 -46 160 -50 200 -18 432 127 537 336 43 87 82 196 75 216 -2 7 -24 4 -64
-9 l-60 -20 -86 22 c-48 12 -139 44 -203 70 -171 72 -236 83 -339 55z"/>
<path d="M8425 4444 c-103 -15 -357 -84 -378 -104 -4 -4 21 -10 58 -14 110
-11 313 -87 520 -194 161 -84 329 -194 466 -305 317 -256 381 -293 646 -377
62 -19 133 -51 180 -80 91 -56 236 -190 308 -284 28 -36 53 -65 57 -66 8 0
-33 154 -69 260 -31 92 -140 310 -201 405 -84 131 -240 301 -377 412 -173 140
-452 256 -776 322 -92 19 -364 34 -434 25z"/>
<path d="M7120 4104 c-178 -39 -412 -127 -515 -194 -181 -119 -323 -331 -380
-567 l-17 -72 -75 -7 c-108 -10 -385 2 -473 19 -41 9 -149 34 -239 56 -185 46
-301 53 -421 26 -180 -41 -286 -55 -418 -55 l-136 0 49 -51 c156 -160 371
-272 645 -335 148 -34 464 -52 639 -36 141 12 444 69 575 107 170 49 407 154
521 229 209 140 333 304 418 557 26 77 54 225 45 235 -3 3 -27 -34 -53 -81
-90 -165 -204 -296 -337 -386 -66 -45 -220 -119 -248 -119 -16 0 -15 6 10 53
16 28 43 102 60 162 57 197 94 241 319 384 150 95 153 101 31 75z"/>
<path d="M4955 4097 c-186 -49 -355 -194 -455 -391 -30 -58 -52 -108 -49 -110
3 -3 23 -1 44 5 62 17 110 4 297 -87 159 -77 184 -86 250 -91 179 -13 339 78
410 235 67 147 81 174 114 209 19 19 34 37 34 39 0 1 -15 5 -32 9 -18 3 -115
47 -215 97 -179 89 -184 90 -265 94 -48 2 -104 -2 -133 -9z"/>
<path d="M7585 4092 c228 -139 321 -215 422 -350 56 -74 101 -157 91 -167 -5
-5 -196 35 -293 62 -104 28 -136 53 -218 167 -41 58 -87 125 -103 150 -16 25
-32 46 -37 46 -21 0 71 -267 148 -426 45 -93 78 -147 116 -189 63 -68 177
-155 263 -200 52 -27 192 -70 288 -90 15 -3 29 -13 32 -23 28 -90 34 -392 11
-546 -8 -55 -31 -165 -50 -245 -58 -245 -57 -335 6 -545 38 -130 59 -258 59
-368 0 -49 4 -88 9 -88 14 0 121 130 178 218 134 203 207 434 220 692 11 232
-20 503 -87 759 -38 144 -38 145 0 138 l30 -6 -24 37 c-12 20 -41 87 -63 147
-60 163 -95 235 -168 347 -82 124 -153 201 -266 283 -95 70 -188 119 -296 158
-76 28 -215 57 -267 57 l-31 0 30 -18z"/>
<path d="M7578 3485 c-3 -11 -12 -49 -19 -84 -22 -113 -192 -429 -339 -633
-78 -108 -218 -265 -313 -351 -244 -220 -274 -254 -351 -404 -107 -207 -265
-364 -506 -504 -50 -28 -93 -55 -95 -59 -13 -21 313 34 455 76 289 86 581 261
773 464 203 213 359 510 438 835 30 125 42 341 25 445 -19 111 -60 243 -68
215z"/>
<path d="M9390 3371 c-76 -24 -92 -34 -195 -114 -98 -77 -243 -172 -349 -227
-80 -42 -87 -59 -57 -138 87 -226 383 -362 826 -379 256 -9 415 21 610 117 66
32 158 88 205 123 83 63 296 274 287 284 -3 2 -56 -21 -119 -51 -155 -77 -182
-79 -287 -26 -96 48 -208 119 -367 231 -255 180 -404 229 -554 180z"/>
<path d="M6053 2850 c-192 -56 -309 -161 -409 -367 -144 -298 -176 -671 -82
-963 30 -94 111 -253 174 -340 59 -82 114 -148 114 -137 0 4 -11 46 -25 93
-31 107 -32 179 -4 245 18 41 56 81 229 238 114 104 234 219 266 256 123 139
181 271 172 396 -7 87 -35 145 -132 265 -43 54 -96 137 -131 205 -32 63 -63
117 -69 121 -15 10 -31 9 -103 -12z"/>
<path d="M7620 2445 c0 -31 -17 -88 -57 -187 -55 -138 -57 -146 -58 -238 0
-94 1 -97 48 -194 39 -82 61 -112 125 -176 89 -88 208 -170 282 -195 28 -9 53
-15 55 -13 2 2 -3 31 -11 63 -13 48 -14 67 -4 98 6 21 17 40 25 43 24 10 107
145 127 208 63 197 -71 415 -297 486 -69 22 -154 71 -190 111 -19 22 -37 39
-40 39 -3 0 -5 -20 -5 -45z"/>
</g>
</svg>
